<?xml version="1.0" encoding="UTF-8"?>
<svg width="174px" height="54px" viewBox="0 0 174 54" version="1.1" xmlns="http://www.w3.org/2000/svg" xmlns:xlink="http://www.w3.org/1999/xlink">
    <!-- Generator: Sketch 47.1 (45422) - http://www.bohemiancoding.com/sketch -->
    <title>logo/black</title>
    <desc>Created with Sketch.</desc>
    <defs>
        <polygon id="path-1" points="0.078 4.94 101.618 4.94 101.618 0.061 0.078 0.061"></polygon>
    </defs>
    <g id="desktop" stroke="none" stroke-width="1" fill="none" fill-rule="evenodd">
        <g id="desktop/all-projects-option-1" transform="translate(-633.000000, -40.000000)">
            <g id="logo/black" transform="translate(633.000000, 40.000000)">
                <g id="Group-3" transform="translate(36.000000, 49.000000)">
                    <mask id="mask-2" fill="white">
                        <use xlink:href="#path-1"></use>
                    </mask>
                    <g id="Clip-2"></g>
                    <path d="M100.472,2.256 L99.935,2.009 C99.544,1.821 99.268,1.691 99.268,1.329 C99.268,0.938 99.609,0.749 99.993,0.749 C100.407,0.749 100.755,0.959 101.001,1.329 L101.538,0.916 C101.248,0.424 100.697,0.061 99.993,0.061 C99.167,0.061 98.485,0.568 98.485,1.358 C98.485,2.031 98.985,2.4 99.602,2.683 L100.131,2.929 C100.552,3.125 100.834,3.269 100.834,3.646 C100.834,4.059 100.501,4.312 100.008,4.312 C99.413,4.312 99.029,3.95 98.753,3.552 L98.21,3.965 C98.572,4.595 99.217,5 100.015,5 C100.929,5 101.618,4.464 101.618,3.617 C101.618,2.958 101.197,2.589 100.472,2.256 Z M87.308,0.829 L88.917,0.829 L88.917,4.92 L89.686,4.92 L89.686,0.829 L91.303,0.829 L91.303,0.141 L87.308,0.141 L87.308,0.829 Z M78.298,0.764 C78.936,0.764 79.429,1.075 79.763,1.589 L80.343,1.162 C79.937,0.496 79.19,0.061 78.291,0.061 C76.891,0.061 75.775,1.133 75.775,2.531 C75.775,3.936 76.891,5 78.291,5 C79.19,5 79.944,4.565 80.343,3.899 L79.763,3.472 C79.429,3.986 78.936,4.298 78.298,4.298 C77.312,4.298 76.572,3.552 76.572,2.531 C76.572,1.51 77.312,0.764 78.298,0.764 Z M66.287,2.719 L68.078,2.719 L68.078,2.053 L66.287,2.053 L66.287,0.829 L68.665,0.829 L68.665,0.141 L65.518,0.141 L65.518,4.92 L68.752,4.92 L68.752,4.232 L66.287,4.232 L66.287,2.719 Z M54.275,0.829 L55.885,0.829 L55.885,4.92 L56.654,4.92 L56.654,0.829 L58.271,0.829 L58.271,0.141 L54.275,0.141 L54.275,0.829 Z M46.26,4.92 L47.029,4.92 L47.029,0.141 L46.26,0.141 L46.26,4.92 Z M37.751,2.046 L35.344,2.046 L35.344,0.141 L34.575,0.141 L34.575,4.92 L35.344,4.92 L35.344,2.734 L37.751,2.734 L37.751,4.92 L38.52,4.92 L38.52,0.141 L37.751,0.141 L37.751,2.046 Z M25.08,0.764 C25.718,0.764 26.211,1.075 26.544,1.589 L27.124,1.162 C26.718,0.496 25.971,0.061 25.072,0.061 C23.673,0.061 22.556,1.133 22.556,2.531 C22.556,3.936 23.673,5 25.072,5 C25.971,5 26.726,4.565 27.124,3.899 L26.544,3.472 C26.211,3.986 25.718,4.298 25.08,4.298 C24.093,4.298 23.354,3.552 23.354,2.531 C23.354,1.51 24.093,0.764 25.08,0.764 Z M13.583,2.393 L12.619,2.393 L12.619,0.822 L13.583,0.822 C14.127,0.822 14.431,1.148 14.431,1.611 C14.431,2.067 14.127,2.393 13.583,2.393 Z M15.222,1.604 C15.222,0.735 14.569,0.141 13.597,0.141 L11.85,0.141 L11.85,4.92 L12.619,4.92 L12.619,3.074 L13.496,3.074 L14.859,4.92 L15.737,4.92 L14.301,2.951 C14.874,2.734 15.222,2.234 15.222,1.604 Z M1.513,3.465 L2.318,1.488 L3.116,3.465 L1.513,3.465 Z M2.188,0.061 L0.078,4.92 L0.897,4.92 L1.238,4.124 L3.392,4.124 L3.732,4.92 L4.559,4.92 L2.449,0.061 L2.188,0.061 L2.188,0.061 Z" id="Fill-1" fill="#666666" mask="url(#mask-2)"></path>
                </g>
                <path d="M118.459,0.817 L118.459,22.565 L98.892,0.279 L97.086,0.279 L97.086,33.073 L102.259,33.073 L102.259,11.227 L121.874,33.611 L123.631,33.611 L123.631,0.817 L118.459,0.817 Z M15.322,18.313 L1.805,0.279 L0,0.279 L0,33.073 L5.172,33.073 L5.172,12.791 L14.443,24.96 L16.2,24.96 L25.422,12.84 L25.422,33.073 L30.595,33.073 L30.595,0.279 L28.838,0.279 L15.322,18.313 L15.322,18.313 Z" id="Fill-4" fill="#4D4D4D"></path>
                <path d="M63.816,28.895 C57.266,28.895 51.955,23.576 51.955,17.016 C51.955,10.455 57.266,5.136 63.816,5.136 C70.366,5.136 75.676,10.455 75.676,17.016 C75.676,23.576 70.366,28.895 63.816,28.895 Z M63.671,0.211 C54.485,0.211 47.038,7.67 47.038,16.871 C47.038,26.072 54.485,33.531 63.671,33.531 C72.858,33.531 80.305,26.072 80.305,16.871 C80.305,7.67 72.858,0.211 63.671,0.211 L63.671,0.211 Z" id="Fill-5" fill="#4D4D4D"></path>
                <path d="M157.253,28.895 C150.702,28.895 145.392,23.576 145.392,17.016 C145.392,10.455 150.702,5.136 157.253,5.136 C163.803,5.136 169.113,10.455 169.113,17.016 C169.113,23.576 163.803,28.895 157.253,28.895 Z M157.108,0.211 C147.922,0.211 140.474,7.67 140.474,16.871 C140.474,26.072 147.922,33.531 157.108,33.531 C166.294,33.531 173.741,26.072 173.741,16.871 C173.741,7.67 166.294,0.211 157.108,0.211 L157.108,0.211 Z" id="Fill-6" fill="#4D4D4D"></path>
            </g>
        </g>
    </g>
</svg>